<svg xmlns="http://www.w3.org/2000/svg" width="150" height="50" viewBox="0,0,150,50"><path d="M9 43 C85 37,90 31,135 14" stroke="#c75bea" fill="none"/><path fill="#4ed4b2" d="M86.02 41.14L85.95 41.07L84.36 41.20L84.31 41.15Q80.86 41.08 79.90 38.95L79.90 38.94L80.05 39.09Q81.16 38.00 82.61 36.89L82.69 36.97L82.69 36.98Q83.09 38.97 85.95 38.82L86.09 38.97L86.04 38.92Q86.76 38.79 87.79 38.57L87.78 38.56L87.94 38.72Q88.80 38.13 88.72 37.18L88.68 37.14L88.59 37.05Q88.53 35.96 86.74 35.28L86.82 35.36L83.06 33.88L83.11 33.93Q80.60 32.41 80.26 28.87L80.41 29.02L80.38 28.99Q80.07 26.74 82.24 26.17L82.32 26.25L82.29 26.22Q83.32 26.07 86.29 26.07L86.33 26.11L86.28 26.05Q91.10 26.01 92.01 28.52L92.03 28.53L92.11 28.62Q91.46 29.14 90.74 29.60L90.58 29.45L89.36 30.58L89.31 30.54Q88.67 28.48 85.43 28.25L85.57 28.39L85.46 28.28Q84.95 28.39 83.92 28.80L83.95 28.83L84.01 28.89Q83.37 29.17 83.37 30.27L83.41 30.31L83.38 30.28Q83.72 31.34 85.54 32.02L85.56 32.04L85.47 31.95Q86.60 32.39 89.26 33.49L89.18 33.41L89.24 33.48Q91.08 34.32 91.27 36.87L91.33 36.93L91.35 36.96Q91.36 37.54 91.29 38.53L91.33 38.57L91.21 38.45Q91.27 39.43 90.70 40.07L90.71 40.08L90.59 39.96Q89.14 41.22 86.10 41.22ZM90.69 43.64L90.76 43.71L90.76 43.71Q91.68 43.75 93.05 43.45L93.13 43.53L93.04 43.44Q94.10 42.75 93.91 41.53L93.85 41.48L93.87 41.49Q93.85 40.97 93.54 39.38L93.57 39.40L93.53 39.36Q92.94 36.37 91.15 35.15L91.19 35.19L91.15 35.15Q90.74 33.87 89.49 33.15L89.37 33.03L89.51 33.17Q88.13 32.63 85.65 31.67L85.66 31.68L85.69 31.71Q85.92 31.34 86.19 31.22L86.20 31.23L86.22 31.26Q86.78 30.75 87.43 30.71L87.49 30.77L87.42 30.70Q88.11 30.56 88.87 30.82L88.95 30.90L88.98 31.00L89.00 30.91L89.40 31.12L89.37 31.13L89.31 31.07Q90.40 31.55 90.59 32.81L90.51 32.73L90.61 32.82Q91.78 31.90 93.68 30.23L93.84 30.38L93.70 30.24Q93.42 29.51 92.43 28.33L92.47 28.37L92.53 28.42Q91.44 25.77 86.34 25.66L86.16 25.48L86.20 25.52Q83.04 25.49 81.06 26.06L81.17 26.17L81.03 26.02Q79.66 26.63 79.89 28.73L80.01 28.85L80.00 28.84Q80.06 30.04 80.98 32.14L80.89 32.05L81.04 32.20Q81.50 33.23 82.53 33.95L82.54 33.97L82.53 33.96Q83.15 35.38 84.45 36.06L84.41 36.03L84.57 36.19Q85.52 36.45 86.47 36.83L86.45 36.81L88.21 37.43L88.38 37.59Q87.92 38.58 85.97 38.47L86.12 38.61L86.00 38.49Q85.59 38.58 84.37 38.27L84.30 38.20L84.40 38.15L84.26 38.24L84.25 38.23Q83.31 37.78 82.66 36.29L82.64 36.27L82.71 36.35Q80.65 37.98 79.54 39.12L79.44 39.01L79.57 39.14Q79.75 39.93 80.78 40.73L80.69 40.65L80.66 40.92L80.57 40.83Q82.15 43.09 86.37 43.47L86.28 43.38L86.24 43.34Q87.50 43.45 90.73 43.68Z"/><path fill="#86e89e" d="M126.21 23.14L126.21 23.14L126.12 23.05Q124.20 25.66 121.54 31.30L121.72 31.48L119.73 35.73L119.69 35.69Q118.77 37.55 117.44 39.80L117.45 39.81L117.54 39.90Q117.85 39.75 116.17 39.79L116.30 39.92L116.21 39.83Q116.31 39.93 115.05 39.93L115.02 39.89L115.04 39.92Q114.23 38.35 111.30 31.19L111.29 31.18L111.27 31.16Q109.22 25.91 107.13 22.90L106.99 22.76L107.10 22.88Q107.76 25.86 107.76 29.02L107.87 29.12L107.78 29.04Q107.83 35.60 104.86 41.16L104.83 41.13L104.82 41.12Q103.51 41.47 101.15 42.20L101.14 42.19L101.12 42.18Q104.93 36.61 104.93 29.38L104.75 29.21L104.94 29.39Q104.87 20.38 99.47 13.42L99.48 13.43L99.46 13.41Q101.10 14.13 103.46 14.82L103.42 14.77L103.37 14.73Q110.44 21.49 116.53 34.81L116.49 34.78L116.53 34.82Q120.16 27.94 122.37 24.44L122.30 24.37L122.30 24.37Q125.83 18.53 129.79 15.07L129.72 15.00L129.86 15.15Q131.05 14.85 133.42 14.09L133.50 14.18L133.34 14.02Q128.43 20.71 128.43 29.32L128.46 29.35L128.42 29.30Q128.41 35.96 131.83 41.48L131.82 41.47L131.83 41.47Q130.64 41.31 127.90 40.70L127.72 40.53L127.78 40.58Q125.46 35.83 125.46 29.85L125.46 29.85L125.35 29.74Q125.38 26.34 126.06 22.99ZM127.52 40.89L127.59 40.97L127.61 40.98Q128.20 41.01 129.65 41.27L129.83 41.45L129.81 41.44Q130.13 42.06 131.08 43.55L131.08 43.54L131.14 43.61Q133.31 44.06 136.77 45.28L136.81 45.32L136.70 45.20Q130.49 38.92 130.49 29.10L130.52 29.12L130.55 29.15Q130.52 21.39 134.89 15.26L134.89 15.26L132.70 15.96L132.71 15.97Q133.74 14.45 134.38 13.57L134.26 13.45L134.40 13.59Q132.51 14.22 129.89 14.75L129.90 14.76L129.90 14.76Q123.00 20.73 116.95 33.33L116.89 33.28L117.03 33.41Q111.83 22.43 106.88 17.17L106.96 17.25L106.95 17.24Q106.43 17.03 105.86 16.91L105.96 17.01L104.66 15.63L104.69 15.67Q104.22 15.12 103.54 14.51L103.35 14.33L103.39 14.36Q100.43 13.46 98.64 12.74L98.57 12.67L98.56 12.65Q104.52 19.83 104.52 29.24L104.58 29.30L104.60 29.32Q104.63 36.97 100.48 42.83L100.33 42.68L100.40 42.74Q101.19 42.62 102.48 42.20L102.38 42.10L102.46 42.18Q102.38 42.48 100.97 44.58L100.96 44.56L100.80 44.40Q102.76 44.08 106.26 43.32L106.13 43.18L106.20 43.25Q109.89 36.17 109.70 28.41L109.76 28.47L109.72 28.42Q111.25 32.43 114.71 40.31L114.74 40.33L114.62 40.22Q114.94 40.24 115.17 40.24L115.14 40.21L115.68 40.21L115.72 40.25Q116.16 40.91 116.95 42.21L116.97 42.22L116.88 42.14Q118.55 42.17 118.55 42.17L118.68 42.30L118.54 42.16Q119.51 42.10 120.15 42.17L120.24 42.26L120.21 42.23Q121.70 38.12 125.05 30.13L125.13 30.21L125.13 30.21Q125.07 35.71 127.66 41.04Z"/><path fill="#d98e43" d="M24.02 29.55L24.22 29.74L24.20 29.73Q24.03 33.82 23.31 37.97L23.41 38.07L23.31 37.98Q25.59 37.44 28.68 37.33L28.65 37.30L28.77 37.41Q30.03 37.53 31.09 36.52L31.15 36.58L31.09 36.52Q32.27 35.62 32.27 34.29L32.15 34.17L32.25 34.28Q32.25 33.97 32.21 33.70L32.22 33.71L32.16 33.65Q32.00 30.72 29.76 29.88L29.79 29.91L29.71 29.83Q28.92 29.49 28.23 29.57L28.30 29.64L28.27 29.61Q27.30 29.63 26.28 29.67L26.13 29.52L26.28 29.68Q25.06 29.56 24.03 29.56ZM22.80 19.12L22.81 19.12L22.83 19.14Q23.71 22.46 23.98 26.84L23.99 26.85L24.05 26.91Q25.57 27.09 28.23 27.13L28.16 27.06L28.19 27.09Q31.18 27.19 31.52 23.64L31.36 23.49L31.48 23.60Q31.64 21.63 30.23 20.80L30.19 20.76L30.27 20.84Q29.25 20.19 24.83 19.55L24.90 19.61L24.94 19.65Q23.89 19.52 22.98 19.29ZM19.17 42.02L19.27 42.12L19.23 42.08Q21.76 35.47 21.49 28.08L21.38 27.97L21.49 28.09Q21.16 20.75 18.23 14.28L18.24 14.29L18.15 14.20Q22.06 16.85 28.28 17.09L28.30 17.11L28.26 17.07Q34.39 17.22 34.73 20.12L34.82 20.21L34.75 20.14Q35.16 22.98 33.75 25.65L33.75 25.65L33.70 25.60Q33.00 27.14 31.40 27.82L31.38 27.81L31.36 27.78Q35.10 28.56 35.33 33.92L35.31 33.91L35.30 33.90Q35.33 34.95 35.25 36.36L35.29 36.40L35.19 36.30Q35.26 37.74 34.32 38.67L34.34 38.68L34.31 38.65Q33.39 39.60 32.06 39.76L32.07 39.76L32.13 39.82Q30.60 39.86 29.54 39.86L29.51 39.83L29.52 39.84Q23.83 39.86 19.30 42.15ZM32.07 42.44L31.99 42.35L31.94 42.30Q32.95 42.43 34.81 42.55L34.90 42.64L34.93 42.67Q36.19 42.55 37.29 41.68L37.42 41.81L37.36 41.75Q38.09 40.76 37.98 39.20L37.97 39.19L37.98 39.21Q37.94 38.28 37.21 34.82L37.20 34.81L37.24 34.85Q36.53 31.59 34.67 30.11L34.73 30.17L34.21 29.23L34.22 29.24Q35.88 27.82 36.45 24.05L36.55 24.15L36.63 24.22Q36.67 22.97 36.60 21.56L36.59 21.56L36.57 21.54Q36.56 20.27 35.45 19.43L35.46 19.44L35.37 19.35Q35.12 19.21 35.01 19.18L35.03 19.20L35.04 19.21Q34.68 18.58 33.84 17.78L33.86 17.80L34.03 17.97Q32.43 16.83 28.20 16.64L28.26 16.69L28.12 16.56Q21.52 16.31 17.53 13.42L17.50 13.39L17.58 13.48Q20.91 20.53 21.21 28.07L21.18 28.04L21.11 27.97Q21.51 35.87 18.70 42.80L18.68 42.79L20.75 41.84L20.74 41.83Q20.31 42.93 19.81 44.07L19.87 44.12L19.92 44.18Q24.17 42.26 29.19 42.26L29.27 42.34L29.27 42.33Q30.54 42.19 31.98 42.34ZM29.86 31.80L29.88 31.82L29.89 31.84Q30.55 31.70 31.46 32.15L31.57 32.26L31.56 32.25Q31.60 32.52 31.75 33.59L31.84 33.67L31.82 33.65Q32.00 35.01 31.06 36.06L31.15 36.15L31.13 36.12Q30.15 37.12 28.74 37.01L28.71 36.97L27.28 37.15L27.20 37.06Q26.39 37.06 25.67 37.17L25.77 37.27L25.84 37.34Q26.04 35.41 26.11 31.94L26.22 32.05L26.12 31.95Q26.75 31.86 28.01 31.82L28.02 31.84L27.96 31.77Q29.22 31.74 29.83 31.78ZM28.83 22.21L28.84 22.22L29.29 22.29L29.35 22.35Q29.50 22.27 29.69 22.31L29.61 22.23L30.09 22.33L30.30 22.35L31.08 22.60L30.91 22.43Q31.14 22.81 31.14 23.11L31.08 23.05L31.08 23.59L30.99 23.49Q31.02 24.79 30.15 25.72L30.17 25.74L30.12 25.69Q29.37 26.75 28.15 26.75L28.03 26.63L28.06 26.65Q27.14 26.77 27.14 26.77L27.16 26.79L27.04 26.67Q25.69 26.61 26.03 26.61L26.05 26.63L26.15 26.73Q26.15 25.25 25.85 22.20L25.81 22.16L25.84 22.19Q27.29 22.19 28.81 22.19Z"/><path fill="#ee67aa" d="M66.91 23.04L66.99 23.12L66.83 22.96Q65.14 25.80 62.48 31.44L62.40 31.36L60.51 35.72L60.56 35.76Q59.57 37.55 58.24 39.80L58.28 39.84L58.24 39.80Q58.70 39.80 57.02 39.84L57.05 39.87L57.08 39.90Q56.97 39.79 55.72 39.79L55.76 39.83L55.85 39.92Q54.96 38.28 52.03 31.12L52.05 31.14L52.13 31.22Q49.99 25.88 47.90 22.87L47.85 22.82L47.91 22.88Q48.67 25.97 48.67 29.13L48.54 28.99L48.69 29.14Q48.66 35.62 45.69 41.18L45.68 41.18L45.60 41.10Q44.30 41.47 41.94 42.19L42.00 42.25L42.00 42.25Q45.72 36.61 45.72 29.38L45.60 29.25L45.72 29.37Q45.62 20.33 40.22 13.36L40.24 13.39L40.31 13.46Q41.89 14.12 44.25 14.81L44.17 14.72L44.25 14.81Q51.34 21.60 57.44 34.92L57.33 34.82L57.40 34.88Q60.91 27.89 63.11 24.38L63.01 24.28L63.05 24.32Q66.68 18.59 70.64 15.12L70.68 15.16L70.53 15.01Q71.85 14.85 74.21 14.09L74.18 14.05L74.15 14.02Q69.35 20.83 69.35 29.43L69.27 29.36L69.21 29.30Q69.22 35.97 72.64 41.49L72.68 41.52L72.75 41.60Q71.36 41.23 68.62 40.63L68.54 40.55L68.53 40.54Q66.22 35.79 66.22 29.81L66.24 29.83L66.25 29.84Q66.15 26.32 66.84 22.97ZM68.46 41.04L68.36 40.93L68.48 41.06Q69.06 41.07 70.51 41.33L70.59 41.42L70.60 41.42Q71.06 42.19 72.01 43.67L72.01 43.67L71.96 43.63Q74.15 44.10 77.62 45.32L77.46 45.16L77.61 45.32Q71.20 38.83 71.20 29.01L71.17 28.98L71.23 29.03Q71.22 21.30 75.60 15.17L75.69 15.26L73.57 16.04L73.50 15.97Q74.40 14.31 75.05 13.44L75.17 13.56L75.16 13.55Q73.20 14.10 70.57 14.64L70.62 14.68L70.71 14.77Q63.84 20.77 57.79 33.37L57.84 33.42L57.70 33.28Q52.63 22.43 47.68 17.17L47.60 17.09L47.75 17.24Q47.22 17.02 46.65 16.91L46.66 16.92L45.54 15.72L45.48 15.65Q44.94 15.04 44.25 14.43L44.30 14.47L44.16 14.34Q41.28 13.51 39.49 12.79L39.42 12.72L39.31 12.61Q45.32 19.83 45.32 29.24L45.28 29.20L45.28 29.21Q45.40 36.94 41.25 42.80L41.16 42.70L41.19 42.74Q41.91 42.55 43.21 42.13L43.17 42.09L43.26 42.18Q43.15 42.45 41.74 44.54L41.70 44.50L41.65 44.46Q43.47 43.99 46.97 43.22L47.03 43.29L46.99 43.24Q50.64 36.12 50.45 28.35L50.61 28.52L50.52 28.42Q52.06 32.44 55.52 40.32L55.47 40.27L55.48 40.28Q55.70 40.19 55.93 40.19L55.97 40.24L56.59 40.32L56.55 40.28Q57.02 40.97 57.82 42.27L57.66 42.11L57.66 42.12Q59.32 42.14 59.32 42.14L59.33 42.14L59.45 42.26Q60.46 42.25 61.11 42.33L61.04 42.26L61.09 42.31Q62.54 38.16 65.89 30.16L65.93 30.21L65.94 30.22Q65.82 35.66 68.41 40.99Z"/></svg>