<svg xmlns="http://www.w3.org/2000/svg" width="150" height="50"><path d="M12 10 C55 10,95 24,147 2" stroke="#b95ed8" fill="none"/><path fill="#cd74eb" d="M88.82 39.85L88.78 39.81L88.89 39.92Q86.89 39.82 84.87 40.01L84.96 40.10L84.87 40.01Q85.52 34.76 85.52 29.92L85.58 29.99L85.51 29.91Q85.59 25.08 84.94 19.87L84.86 19.78L84.90 19.82Q80.38 19.49 77.18 17.82L77.02 17.65L76.44 16.05L76.35 15.95Q76.27 15.58 75.67 14.36L75.47 14.17L75.64 14.34Q80.66 16.96 86.67 17.15L86.70 17.17L86.58 17.06Q92.42 17.18 97.87 15.13L97.91 15.17L98.02 15.28Q97.23 16.62 96.58 18.45L96.57 18.43L96.59 18.46Q93.05 19.82 88.78 20.02L88.71 19.94L88.76 19.99Q88.61 25.06 88.61 30.01L88.47 29.86L88.58 29.98Q88.43 34.77 88.73 39.76ZM98.67 14.56L98.57 14.46L98.65 14.54Q92.78 16.78 86.58 16.59L86.58 16.59L86.63 16.65Q79.88 16.36 74.78 13.40L74.83 13.44L74.75 13.37Q75.62 14.77 76.91 18.04L76.92 18.05L76.91 18.04Q77.56 18.35 78.82 18.92L78.87 18.97L78.87 18.97Q79.12 19.68 79.47 21.20L79.51 21.25L79.48 21.22Q81.68 21.97 84.73 22.20L84.81 22.29L84.82 22.30Q85.08 25.87 85.08 29.64L85.17 29.73L85.10 29.66Q85.09 35.01 84.29 40.38L84.39 40.48L84.24 40.33Q85.98 40.28 86.51 40.28L86.61 40.37L86.53 40.30Q86.47 40.54 86.41 41.21L86.39 41.18L86.42 41.22Q86.39 41.91 86.39 42.26L86.37 42.23L86.36 42.22Q87.63 42.24 89.16 42.32L89.10 42.26L89.21 42.37Q90.06 42.34 91.89 42.49L91.91 42.51L91.89 42.50Q90.68 37.60 90.57 32.42L90.56 32.41L90.62 32.47Q90.30 26.97 90.83 22.06L91.01 22.24L90.98 22.21Q94.81 21.55 97.97 20.34L98.05 20.42L98.12 20.49Q98.62 17.90 99.65 15.84L99.66 15.85L99.67 15.86Q98.43 16.65 97.63 16.95L97.55 16.87L97.58 16.90Q98.10 15.70 98.67 14.56Z"/><path fill="#4e91d4" d="M27.56 30.38L27.54 30.36L27.61 30.43Q24.21 36.86 20.79 40.82L20.77 40.80L20.67 40.70Q18.75 41.07 16.32 41.94L16.32 41.95L16.39 42.02Q21.39 36.51 26.15 28.10L26.06 28.01L26.04 27.98Q21.43 21.01 15.45 14.62L15.51 14.68L15.44 14.61Q18.33 15.79 20.62 16.28L20.73 16.39L20.62 16.29Q25.30 21.54 27.74 25.50L27.70 25.46L27.79 25.55Q30.35 21.18 34.27 16.76L34.21 16.70L34.21 16.70Q35.80 16.39 39.00 15.63L38.92 15.55L38.95 15.59Q32.95 22.11 29.48 28.04L29.53 28.09L29.46 28.02Q34.71 36.77 39.09 41.34L39.00 41.25L39.01 41.26Q36.45 40.49 34.36 40.27L34.32 40.23L34.28 40.19Q31.57 37.29 27.65 30.47ZM34.34 40.67L34.23 40.56L34.25 40.57Q34.47 40.53 34.92 40.64L35.05 40.77L34.98 40.69Q35.79 41.47 37.31 43.07L37.31 43.07L37.32 43.08Q40.61 43.81 43.65 45.18L43.73 45.26L43.82 45.35Q36.60 38.66 31.50 29.91L31.43 29.84L31.37 29.78Q35.17 23.19 41.07 16.34L41.06 16.32L41.14 16.41Q39.72 17.07 37.55 17.61L37.44 17.50L37.44 17.50Q38.47 16.74 40.22 14.95L40.07 14.80L40.14 14.87Q37.75 15.75 34.05 16.32L34.14 16.40L34.15 16.42Q30.64 20.14 28.05 24.44L28.04 24.43L27.95 24.34Q27.06 22.77 25.88 21.28L26.01 21.41L23.63 18.38L23.28 18.41L23.34 18.47Q23.21 18.50 22.98 18.42L22.88 18.32L22.96 18.40Q22.29 17.58 20.81 16.02L20.72 15.93L20.78 15.99Q16.98 15.12 14.39 13.75L14.33 13.69L14.24 13.60Q21.15 21.05 25.72 28.09L25.67 28.04L25.57 27.94Q21.09 36.13 15.34 42.72L15.43 42.81L15.41 42.78Q16.79 42.19 18.92 41.61L18.87 41.57L17.49 42.92L17.64 43.07Q17.60 43.04 16.27 44.37L16.31 44.41L16.22 44.33Q19.27 43.30 22.43 42.80L22.33 42.70L22.50 42.88Q26.34 38.18 28.93 33.43L29.00 33.49L29.00 33.50Q31.56 37.73 34.26 40.59Z"/><path fill="#d86d4a" d="M63.13 21.49L63.15 21.51L63.14 21.50Q61.51 20.17 59.87 19.79L59.92 19.84L59.77 19.69Q58.69 19.45 55.91 19.41L56.06 19.55L56.06 19.56Q50.74 19.38 48.69 21.40L48.79 21.50L48.74 21.45Q47.08 22.99 47.20 26.69L47.15 26.64L47.26 26.75Q47.42 30.56 47.58 31.52L47.52 31.46L47.58 31.52Q48.59 37.56 56.32 37.56L56.27 37.51L56.32 37.56Q61.04 37.59 63.13 35.19L63.10 35.16L62.99 35.05Q64.91 32.90 65.14 28.14L65.11 28.12L65.18 28.18Q65.48 23.41 63.15 21.51ZM56.23 40.48L56.17 40.41L56.29 40.54Q49.78 40.69 46.81 38.33L46.74 38.26L46.80 38.32Q44.69 36.13 44.57 31.06L44.57 31.06L44.64 31.13Q44.47 30.47 44.32 27.19L44.28 27.16L44.43 27.30Q44.20 24.60 44.23 23.53L44.31 23.61L44.20 23.50Q44.50 20.79 45.91 19.07L45.76 18.92L45.78 18.95Q48.33 16.66 53.20 16.51L53.27 16.58L53.24 16.54Q55.04 16.52 55.91 16.56L55.83 16.47L55.93 16.57Q65.84 16.62 67.59 20.96L67.73 21.10L67.66 21.03Q68.39 22.98 68.23 25.72L68.35 25.83L68.28 25.76Q68.29 27.49 68.10 30.76L67.96 30.62L68.14 30.80Q67.87 33.53 66.95 35.59L66.89 35.52L66.89 35.52Q64.94 40.36 56.30 40.55ZM68.60 40.48L68.64 40.51L68.67 40.54Q69.95 38.66 70.06 35.57L70.05 35.57L70.05 35.56Q70.23 34.64 70.19 33.04L70.07 32.92L70.12 32.97Q70.12 32.25 70.08 30.42L70.16 30.50L70.07 30.40Q70.03 23.28 68.08 20.81L68.14 20.86L68.12 20.84Q67.67 19.79 66.57 18.68L66.65 18.76L66.57 18.68Q63.30 16.22 55.84 16.07L55.84 16.07L55.81 16.03Q48.44 15.93 45.39 18.52L45.31 18.44L45.39 18.52Q43.90 20.34 43.90 23.27L43.87 23.24L44.01 23.38Q43.99 24.65 44.14 25.98L44.02 25.86L44.07 25.91Q44.03 26.94 44.07 28.39L44.07 28.39L44.16 28.48Q44.30 32.43 44.45 33.61L44.42 33.57L44.41 33.56Q44.86 36.56 46.19 38.35L46.10 38.27L46.11 38.27Q46.59 39.59 47.65 40.35L47.65 40.34L47.64 40.34Q50.95 42.73 58.72 42.92L58.56 42.77L58.73 42.94Q66.03 43.12 68.70 40.57ZM65.02 28.29L64.87 28.14L64.97 28.24Q64.78 32.81 62.88 34.90L62.82 34.84L62.71 34.73Q60.76 37.12 56.30 37.16L56.36 37.22L56.31 37.16Q51.90 37.13 49.77 35.23L49.78 35.24L49.78 35.24Q49.00 33.55 49.07 30.65L49.17 30.75L49.22 30.80Q49.28 26.14 51.30 23.97L51.18 23.85L51.32 23.99Q53.24 21.72 57.84 21.72L57.89 21.77L57.82 21.70Q62.14 21.83 64.23 23.69L64.10 23.56L64.13 23.59Q65.02 25.40 64.91 28.18Z"/><path fill="#e835bb" d="M116.29 41.33L116.41 41.46L116.31 41.36Q113.52 41.61 112.26 41.08L112.24 41.06L112.17 40.98Q110.16 40.12 110.24 37.64L110.30 37.71L110.36 37.76Q110.43 34.30 110.43 34.87L110.40 34.84L110.55 34.99Q110.46 29.56 107.60 24.73L107.68 24.80L107.60 24.73Q109.49 25.59 111.47 25.97L111.58 26.08L111.57 26.07Q113.31 30.70 113.20 35.19L113.13 35.13L113.08 35.08Q113.02 36.66 113.86 37.88L113.82 37.84L113.93 37.95Q114.70 39.14 116.23 38.95L116.32 39.04L116.72 38.95L116.70 38.93Q117.93 38.75 118.75 37.99L118.81 38.05L118.86 38.10Q119.61 37.27 119.61 36.32L119.59 36.30L119.70 36.41Q119.57 36.05 119.53 35.85L119.64 35.96L119.52 35.85Q119.49 30.64 120.63 26.30L120.70 26.37L120.63 26.30Q121.63 26.19 122.62 25.96L122.77 26.12L124.67 25.51L124.77 25.60Q122.17 30.58 122.48 36.14L122.40 36.06L122.37 36.03Q122.56 39.11 120.84 40.25L120.95 40.36L120.97 40.38Q119.66 41.24 116.35 41.40ZM118.67 43.79L118.71 43.83L118.73 43.85Q122.18 43.99 124.01 43.23L123.89 43.11L123.91 43.13Q124.94 42.49 124.94 41.08L124.95 41.09L124.81 40.95Q124.86 40.08 124.59 38.52L124.69 38.61L124.53 38.45Q124.13 35.39 124.51 32.39L124.55 32.43L124.61 32.48Q124.89 29.23 126.30 26.49L126.36 26.54L126.23 26.41Q125.65 26.79 124.32 27.21L124.32 27.21L124.30 27.19Q124.53 26.58 124.83 26.01L124.87 26.05L125.35 24.81L125.35 24.81Q123.42 25.47 120.26 25.96L120.34 26.05L120.31 26.02Q119.05 30.77 119.20 35.87L119.21 35.88L119.30 35.97Q119.43 38.11 116.76 38.61L116.61 38.46L116.36 38.67L116.26 38.72L115.28 38.53L115.31 38.56Q115.10 37.55 115.14 37.06L115.11 37.03L115.14 37.06Q115.34 32.54 114.65 28.12L114.70 28.17L113.65 28.03L113.68 28.07Q113.08 27.96 112.55 27.85L112.61 27.91L112.62 27.92Q112.18 26.45 111.92 25.69L112.00 25.77L111.92 25.70Q109.22 25.35 106.97 24.06L106.80 23.89L106.92 24.01Q108.98 27.44 109.70 30.82L109.83 30.95L109.83 30.95Q110.15 32.99 110.00 36.49L109.99 36.48L110.01 36.50Q110.07 36.68 110.00 37.78L110.12 37.91L110.05 37.83Q109.96 40.26 111.33 41.21L111.19 41.07L111.27 41.15Q111.60 43.35 118.61 43.73Z"/></svg>