<svg xmlns="http://www.w3.org/2000/svg" width="150" height="50" viewBox="0,0,150,50"><path d="M16 4 C94 26,77 30,147 13" stroke="#d0e68d" fill="none"/><path fill="#d96262" d="M80.06 49.57L80.05 49.56L80.14 49.65Q82.96 45.69 85.85 39.49L85.89 39.52L85.92 39.56Q82.88 33.09 76.79 25.02L76.65 24.88L76.78 25.01Q78.52 25.99 81.30 26.63L81.33 26.66L81.30 26.63Q84.97 31.45 87.41 36.67L87.32 36.58L87.34 36.60Q89.48 31.27 92.56 26.86L92.68 26.98L92.56 26.86Q94.77 26.51 96.86 25.71L96.94 25.79L96.92 25.77Q93.40 29.48 89.93 36.91L90.11 37.09L87.20 43.00L87.28 43.09Q85.84 46.22 84.09 48.84L84.05 48.80L84.04 48.80Q81.62 49.15 80.17 49.68ZM86.32 51.00L86.19 50.87L86.24 50.91Q88.00 48.07 89.45 44.80L89.39 44.74L92.18 38.46L92.13 38.41Q95.76 30.51 99.07 26.52L99.09 26.53L99.01 26.45Q97.62 27.08 95.72 27.77L95.69 27.74L96.87 26.48L96.81 26.42Q97.32 25.68 97.93 24.99L98.01 25.07L98.01 25.07Q95.27 26.06 92.41 26.52L92.38 26.48L92.51 26.62Q89.77 30.54 87.83 35.00L87.64 34.80L87.68 34.84Q86.02 31.51 84.23 28.69L84.38 28.84L84.29 28.75Q84.19 28.85 83.83 28.81L83.80 28.77L83.68 28.66Q83.49 28.79 83.30 28.79L83.21 28.70L83.14 28.63Q82.50 27.50 81.55 26.35L81.50 26.30L81.48 26.28Q78.41 25.72 75.67 24.01L75.67 24.02L75.55 23.89Q81.92 32.01 85.61 39.63L85.55 39.56L85.55 39.57Q83.41 44.66 79.34 50.29L79.29 50.25L79.27 50.23Q80.09 49.94 80.89 49.79L80.86 49.76L82.50 49.42L82.55 49.47Q81.90 50.15 80.72 51.79L80.78 51.86L80.63 51.71Q82.96 51.13 86.23 50.90Z"/><path fill="#d6914c" d="M119.62 30.83L119.76 30.97L119.76 30.96Q119.52 29.62 117.58 28.90L117.68 29.00L117.65 28.97Q117.21 28.83 116.67 28.83L116.53 28.69L116.57 28.72Q115.31 28.84 114.25 29.41L114.25 29.42L114.19 29.36Q112.81 30.07 112.92 31.29L112.83 31.19L112.85 31.21Q113.18 34.02 113.03 36.27L113.02 36.26L113.13 36.37Q112.96 38.79 112.24 41.30L112.31 41.37L112.19 41.25Q110.10 41.79 108.92 42.21L108.92 42.21L108.95 42.23Q110.60 38.67 110.60 34.67L110.57 34.64L110.51 34.58Q110.61 29.24 108.02 24.79L107.87 24.64L107.93 24.69Q109.23 25.27 111.63 25.99L111.45 25.82L111.51 25.88Q111.82 26.60 112.20 28.13L112.15 28.08L112.19 28.11Q113.60 26.10 117.48 26.17L117.51 26.21L117.49 26.18Q118.97 26.21 119.76 26.33L119.79 26.35L119.71 26.27Q122.71 26.68 122.78 28.70L122.71 28.63L122.78 28.70Q122.91 29.70 122.72 30.73L122.68 30.69L122.68 30.69Q122.25 33.23 122.44 36.24L122.38 36.17L122.38 36.18Q122.51 39.01 123.50 41.56L123.47 41.53L123.47 41.53Q121.73 41.09 120.02 40.94L120.00 40.92L119.99 40.91Q119.67 38.68 119.59 36.01L119.44 35.87L119.56 35.98Q119.56 33.32 119.79 31.00ZM119.72 41.36L119.61 41.25L119.65 41.29Q120.53 41.37 121.82 41.59L121.84 41.61L122.19 42.65L122.27 42.72Q122.26 43.02 122.49 43.56L122.52 43.59L122.55 43.62Q124.94 44.14 127.64 45.32L127.65 45.33L127.64 45.32Q125.27 42.18 124.58 38.38L124.62 38.41L124.43 38.22Q124.14 36.15 124.26 32.46L124.22 32.42L124.25 32.45Q124.21 32.11 124.25 31.31L124.32 31.37L124.43 31.49Q124.38 30.75 124.30 30.26L124.39 30.34L124.38 30.33Q124.29 28.68 123.19 28.19L123.12 28.12L123.09 28.09Q122.99 27.31 122.23 26.70L122.25 26.72L122.27 26.74Q120.51 25.66 117.46 25.74L117.38 25.66L117.35 25.62Q115.51 25.69 114.67 25.88L114.74 25.95L114.84 26.04Q113.23 26.22 112.28 27.14L112.44 27.30L112.43 27.29Q112.31 26.76 111.93 25.73L111.81 25.61L111.83 25.63Q109.11 25.03 107.28 24.04L107.26 24.02L107.12 23.89Q110.20 28.79 110.20 34.54L110.24 34.58L110.21 34.55Q110.26 38.97 108.35 42.82L108.26 42.72L108.35 42.82Q108.95 42.43 110.25 42.05L110.35 42.15L110.40 42.21Q109.84 43.39 109.31 44.38L109.37 44.45L109.37 44.45Q110.63 43.84 114.17 43.27L114.33 43.43L114.21 43.31Q115.20 38.17 115.08 33.33L115.04 33.29L115.10 33.35Q115.03 32.48 116.21 31.75L116.34 31.89L116.21 31.76Q117.23 31.10 118.33 30.98L118.45 31.11L118.42 31.07Q118.78 30.94 119.20 31.13L119.33 31.26L119.20 31.13Q119.11 33.74 119.15 36.29L119.11 36.26L119.25 36.39Q119.22 38.84 119.72 41.35Z"/><path fill="#e6318c" d="M26.77 41.09L26.75 41.07L25.18 41.21L25.12 41.16Q21.76 41.18 20.81 39.05L20.80 39.04L20.75 38.99Q21.92 37.95 23.36 36.85L23.37 36.85L23.49 36.97Q23.96 39.04 26.81 38.89L26.90 38.97L26.76 38.84Q27.62 38.86 28.65 38.63L28.64 38.62L28.65 38.63Q29.52 38.05 29.44 37.10L29.41 37.07L29.55 37.21Q29.42 36.05 27.63 35.36L27.65 35.39L23.82 33.84L23.81 33.83Q21.51 32.52 21.17 28.98L21.24 29.05L21.14 28.95Q21.06 26.93 23.23 26.36L23.19 26.32L23.13 26.26Q24.09 26.04 27.06 26.04L27.08 26.06L27.07 26.05Q31.91 26.01 32.82 28.53L32.87 28.57L32.80 28.50Q32.22 29.11 31.50 29.56L31.53 29.59L30.03 30.46L30.04 30.46Q29.53 28.54 26.29 28.31L26.42 28.44L26.27 28.30Q25.73 28.36 24.70 28.78L24.76 28.84L24.68 28.76Q24.06 29.06 24.06 30.16L24.11 30.21L24.10 30.19Q24.49 31.31 26.32 32.00L26.39 32.07L26.34 32.02Q27.42 32.41 30.08 33.52L30.15 33.58L30.07 33.50Q31.94 34.38 32.13 36.93L32.07 36.88L31.98 36.79Q32.15 37.52 32.07 38.51L32.02 38.46L32.04 38.48Q32.11 39.46 31.54 40.11L31.46 40.03L31.46 40.03Q29.85 41.12 26.80 41.12ZM31.62 43.77L31.53 43.69L31.62 43.77Q32.58 43.86 33.95 43.55L33.89 43.49L33.81 43.41Q34.85 42.70 34.66 41.49L34.77 41.59L34.67 41.49Q34.57 40.90 34.27 39.30L34.28 39.31L34.31 39.34Q33.92 36.55 32.13 35.33L31.97 35.17L31.94 35.15Q31.56 33.89 30.31 33.17L30.18 33.04L30.18 33.04Q28.98 32.68 26.51 31.73L26.50 31.72L26.50 31.72Q26.71 31.32 26.98 31.21L26.86 31.09L27.00 31.23Q27.64 30.81 28.29 30.77L28.24 30.72L28.23 30.71Q28.92 30.57 29.69 30.83L29.74 30.88L29.78 31.00L29.81 30.92L30.09 31.01L30.02 30.98L30.01 30.96Q31.24 31.58 31.43 32.84L31.45 32.86L31.33 32.75Q32.69 32.01 34.59 30.33L34.46 30.21L34.63 30.37Q34.36 29.65 33.38 28.47L33.26 28.35L33.30 28.39Q32.25 25.78 27.15 25.67L26.98 25.50L27.06 25.58Q23.80 25.45 21.82 26.02L21.92 26.12L21.90 26.09Q20.48 26.66 20.71 28.75L20.76 28.80L20.67 28.71Q20.81 29.99 21.72 32.08L21.71 32.07L21.82 32.18Q22.29 33.22 23.31 33.94L23.31 33.94L23.25 33.88Q23.92 35.34 25.21 36.03L25.31 36.13L25.33 36.14Q26.26 36.39 27.21 36.77L27.17 36.73L29.17 37.59L29.11 37.53Q28.85 38.72 26.91 38.60L26.79 38.49L26.87 38.56Q26.32 38.51 25.10 38.20L25.17 38.27L25.12 38.07L25.08 38.26L25.00 38.18Q24.21 37.89 23.57 36.40L23.43 36.27L23.41 36.25Q21.38 37.91 20.28 39.05L20.33 39.11L20.24 39.01Q20.53 39.91 21.56 40.71L21.55 40.71L21.49 40.95L21.35 40.81Q22.79 42.94 27.02 43.32L27.03 43.33L27.15 43.45Q28.27 43.43 31.50 43.65Z"/><path fill="#ade079" d="M49.61 15.83L49.69 15.91L49.55 15.77Q51.49 20.67 52.06 25.85L52.06 25.86L52.19 25.99Q55.86 21.81 61.76 16.97L61.70 16.92L61.65 16.87Q64.98 16.69 67.61 15.89L67.45 15.74L61.01 21.48L60.91 21.38Q57.56 24.39 54.70 27.24L54.64 27.18L54.68 27.22Q62.75 36.47 67.82 41.19L67.81 41.18L67.70 41.07Q64.55 40.09 62.22 39.94L62.40 40.12L62.42 40.13Q56.62 34.72 52.32 28.89L52.28 28.86L52.31 28.89Q52.36 35.44 50.49 40.77L50.55 40.82L50.40 40.68Q50.22 40.76 49.72 40.95L49.66 40.89L49.62 41.04L49.71 41.13Q49.58 41.23 47.03 42.14L46.94 42.05L46.96 42.07Q49.96 35.56 49.62 28.09L49.57 28.05L49.59 28.07Q49.35 20.82 45.81 14.31L45.65 14.15L46.30 14.54L46.72 14.84L46.64 14.72L46.67 14.76Q47.42 15.16 49.63 15.84ZM49.93 15.57L49.84 15.49L49.92 15.57Q47.61 14.97 44.99 13.45L44.92 13.38L45.04 13.50Q49.36 20.83 49.36 29.78L49.28 29.69L49.31 29.72Q49.31 36.74 46.34 42.79L46.42 42.87L48.40 41.95L48.45 42.00Q47.87 42.83 47.19 44.13L47.24 44.18L47.37 44.31Q49.50 43.40 51.44 42.98L51.52 43.05L51.60 42.91L51.59 42.89Q51.87 42.87 52.44 42.72L52.34 42.62L52.48 42.76Q54.02 36.72 54.13 31.92L54.06 31.85L54.14 31.94Q56.14 34.35 57.97 36.22L58.06 36.31L58.10 36.35Q59.22 37.40 62.23 40.37L62.32 40.45L62.24 40.38L62.22 40.36Q63.26 41.21 65.13 42.81L65.09 42.77L65.23 42.91Q69.00 43.52 72.47 45.23L72.58 45.35L72.52 45.28Q63.11 36.60 56.87 29.18L56.95 29.26L57.05 29.36Q61.28 24.91 70.04 16.31L70.19 16.46L70.10 16.37Q67.65 17.62 65.64 18.00L65.53 17.89L65.65 18.01Q66.84 17.00 69.17 14.98L69.04 14.86L69.00 14.82Q64.90 16.24 61.55 16.43L61.55 16.42L61.58 16.45Q58.63 18.64 53.76 23.33L53.87 23.44L53.76 23.33Q53.35 20.71 52.78 18.16L52.94 18.32L52.80 18.18Q51.69 18.10 50.70 17.76L50.78 17.84L50.78 17.84Q50.47 16.99 49.90 15.55Z"/></svg>